<svg fill="currentColor" width="24" height="24" viewBox="0 0 24 24" xmlns="http://www.w3.org/2000/svg">
    <path fill-rule="evenodd" clip-rule="evenodd" d="M4.5 10.956C4.5 6.83816 7.83816 3.5 11.956 3.5C16.0738 3.5 19.412 6.83816 19.412 10.956C19.412 15.0738 16.0738 18.412 11.956 18.412C7.83816 18.412 4.5 15.0738 4.5 10.956ZM11.956 2C7.00973 2 3 6.00973 3 10.956C3 15.9022 7.00973 19.912 11.956 19.912C14.0505 19.912 15.977 19.193 17.5023 17.9884L20.351 20.8296C20.6442 21.1221 21.1191 21.1215 21.4116 20.8283C21.7041 20.535 21.7035 20.0601 21.4102 19.7676L18.5986 16.9632C20.0363 15.3745 20.912 13.2675 20.912 10.956C20.912 6.00973 16.9022 2 11.956 2Z"/>
</svg>
